# Blender v3.1.2 OBJ File: ''
# www.blender.org
mtllib entrepot.mtl
o Circle
v -0.076975 0.000000 -1.000000
v -0.707107 0.000000 -0.707107
v -1.000000 0.000000 0.000000
v -0.707107 0.000000 0.707107
v -0.076975 0.000000 1.000000
v 0.707107 0.000000 0.707107
v 1.000000 0.000000 -0.000000
v 0.707107 0.000000 -0.707107
v -0.124020 0.000000 -1.308029
v -0.924916 0.000000 -0.924916
v -1.308029 0.000000 0.000000
v -0.924916 0.000000 0.924916
v -0.124019 0.000000 1.308029
v 0.924916 0.000000 0.924916
v 1.308029 0.000000 -0.000000
v 0.924916 0.000000 -0.924916
v 0.131005 0.000000 1.293913
v 0.126683 0.000000 -1.295703
v 0.070409 0.000000 1.009646
v 0.051874 0.000000 -1.022554
v -1.012769 0.000000 1.254965
v -0.371749 0.000000 1.561601
v 0.135942 0.000000 1.448184
v -0.110799 0.000000 1.452342
v -0.282332 0.000000 1.629755
v -0.278174 0.000000 1.876497
v -0.100761 0.000000 2.048029
v 0.145981 0.000000 2.043871
v 0.317513 0.000000 1.866458
v 0.313355 0.000000 1.619716
v -0.076975 0.459018 -1.000000
v -0.707107 0.459018 -0.707107
v -1.000000 0.459018 0.000000
v -0.707107 0.459018 0.707107
v -0.076975 0.459018 1.000000
v 0.707107 0.459018 0.707107
v 1.000000 0.459018 -0.000000
v 0.707107 0.459018 -0.707107
v -0.124020 0.459018 -1.308029
v -0.924916 0.459018 -0.924916
v -1.308029 0.459018 0.000000
v -0.924916 0.459018 0.924916
v -0.124019 0.459018 1.308029
v 0.924916 0.459018 0.924916
v 1.308029 0.459018 -0.000000
v 0.924916 0.459018 -0.924916
v 0.131005 0.459018 1.293913
v 0.126683 0.459018 -1.295703
v 0.070409 0.459018 1.009646
v 0.051874 0.459018 -1.022554
v -1.012769 0.345262 1.254965
v -0.371749 0.345262 1.561601
v 0.135942 0.459018 1.448184
v -0.110799 0.459018 1.452342
v -0.282332 0.459018 1.629755
v -0.278174 0.459018 1.876497
v -0.100761 0.459018 2.048029
v 0.145981 0.459018 2.043871
v 0.317513 0.459018 1.866458
v 0.313355 0.459018 1.619716
v 0.135942 0.691724 1.448184
v -0.110799 0.691724 1.452342
v -0.282332 0.691724 1.629755
v -0.278174 0.691724 1.876497
v -0.100761 0.691724 2.048029
v 0.145981 0.691724 2.043871
v 0.317513 0.691724 1.866458
v 0.313355 0.691724 1.619716
v 0.192889 0.628397 1.303870
v -0.172577 0.628397 1.310029
v -0.426645 0.628397 1.572808
v -0.420487 0.628397 1.938274
v -0.157708 0.628397 2.192343
v 0.207758 0.628397 2.186184
v 0.461827 0.628397 1.923405
v 0.455668 0.628397 1.557939
v 0.054165 0.888466 1.303870
v -0.022086 0.888466 1.310029
v -0.075094 0.888466 1.572808
v -0.073809 0.888466 1.938274
v -0.018983 0.888466 2.192343
v 0.057267 0.888466 2.186184
v 0.110276 0.888466 1.923405
v 0.108991 0.888466 1.557939
vt 0.000000 0.000000
vt 0.000000 0.000000
vt 0.000000 0.000000
vt 0.000000 0.000000
vt 0.000000 0.000000
vt 0.000000 0.000000
vt 0.000000 0.000000
vt 0.000000 0.000000
vt 0.000000 0.000000
vt 0.000000 0.000000
vt 0.000000 0.000000
vt 0.000000 0.000000
vt 0.000000 0.000000
vt 0.000000 0.000000
vt 0.000000 0.000000
vt 0.000000 0.000000
vt 0.000000 0.000000
vt 0.000000 0.000000
vt 0.000000 0.000000
vt 0.000000 0.000000
vt 0.000000 0.000000
vt 0.000000 0.000000
vt 0.000000 0.000000
vt 0.000000 0.000000
vt 0.000000 0.000000
vt 0.000000 0.000000
vt 0.000000 0.000000
vt 0.000000 0.000000
vt 0.000000 0.000000
vt 0.000000 0.000000
vt 0.000000 0.000000
vt 0.000000 0.000000
vt 0.000000 0.000000
vt 0.000000 0.000000
vt 0.000000 0.000000
vt 0.000000 0.000000
vt 0.000000 0.000000
vt 0.000000 0.000000
vt 0.000000 0.000000
vt 0.000000 0.000000
vt 0.000000 0.000000
vt 0.000000 0.000000
vt 0.000000 0.000000
vt 0.000000 0.000000
vt 0.000000 0.000000
vt 0.000000 0.000000
vt 0.000000 0.000000
vt 0.000000 0.000000
vt 0.000000 0.000000
vt 0.000000 0.000000
vt 0.000000 0.000000
vt 0.000000 0.000000
vt 0.000000 0.000000
vt 0.000000 0.000000
vt 0.000000 0.000000
vt 0.000000 0.000000
vt 0.000000 0.000000
vt 0.000000 0.000000
vt 0.000000 0.000000
vt 0.000000 0.000000
vt 0.000000 0.000000
vt 0.000000 0.000000
vt 0.000000 0.000000
vt 0.000000 0.000000
vt 0.000000 0.000000
vt 0.000000 0.000000
vt 0.000000 0.000000
vt 0.000000 0.000000
vt 0.000000 0.000000
vt 0.000000 0.000000
vt 0.000000 0.000000
vt 0.000000 0.000000
vt 0.000000 0.000000
vt 0.000000 0.000000
vt 0.000000 0.000000
vt 0.000000 0.000000
vt 0.000000 0.000000
vt 0.000000 0.000000
vt 0.000000 0.000000
vt 0.000000 0.000000
vt 0.000000 0.000000
vt 0.000000 0.000000
vt 0.000000 0.000000
vt 0.000000 0.000000
vn 0.0000 -1.0000 0.0000
vn 0.0000 1.0000 0.0000
vn -0.1385 0.9471 0.2896
vn -0.4683 0.8530 -0.2305
vn 0.6951 0.0000 -0.7189
vn 0.0491 0.0000 -0.9988
vn -0.0168 0.0000 -0.9999
vn -0.4292 0.0000 -0.9032
vn 0.9239 0.0000 0.3827
vn -0.7189 0.0000 -0.6951
vn 0.4215 0.0000 0.9068
vn 0.9239 0.0000 -0.3827
vn -0.9999 0.0000 0.0168
vn 0.4213 0.0000 -0.9069
vn -0.6951 0.0000 0.7189
vn 0.9995 0.0000 -0.0320
vn 0.4215 0.0000 -0.9068
vn 1.0000 0.0000 -0.0091
vn -1.0000 0.0000 0.0000
vn -0.6062 0.0000 0.7953
vn -0.9239 0.0000 -0.3827
vn -0.4315 0.0000 0.9021
vn -0.9239 0.0000 0.3827
vn -0.9664 0.0000 -0.2572
vn -0.4338 0.0000 0.9010
vn -0.4315 0.0000 -0.9021
vn 0.0169 0.0000 0.9999
vn 0.7189 0.0000 0.6951
vn 0.9999 0.0000 -0.0168
vn 0.0168 0.0000 0.9999
vn 0.2809 0.9147 -0.2905
vn 0.2905 0.9147 0.2809
vn -0.2809 0.9147 0.2905
vn -0.2905 0.9147 -0.2809
vn 0.4041 0.9147 -0.0068
vn 0.0068 0.9147 0.4041
vn -0.4041 0.9147 0.0068
vn -0.0068 0.9147 -0.4041
vn -0.0279 -0.0006 -0.9996
vn 0.5974 -0.8019 -0.0061
vn 0.0279 -0.0006 0.9996
vn -0.6650 -0.6206 0.4156
vn -0.6633 -0.6402 -0.3875
vn 0.6650 -0.6206 -0.4156
vn 0.6633 -0.6402 0.3875
vn -0.5974 -0.8019 0.0061
usemtl None
s off
f 7/1/1 15/2/1 14/3/1 6/4/1
f 5/5/1 13/6/1 12/7/1 4/8/1
f 3/9/1 11/10/1 10/11/1 2/12/1
f 8/13/1 16/14/1 15/2/1 7/1/1
f 6/4/1 14/3/1 17/15/1 19/16/1
f 4/8/1 12/7/1 11/10/1 3/9/1
f 2/12/1 10/11/1 9/17/1 1/18/1
f 1/18/1 9/17/1 18/19/1 20/20/1
f 19/16/1 5/5/1 1/18/1 20/20/1
f 18/19/1 16/14/1 8/13/1 20/20/1
f 17/15/1 13/6/1 5/5/1 19/16/1
f 13/6/1 22/21/1 21/22/1 12/7/1
f 17/15/1 23/23/1 24/24/1 13/6/1
f 13/6/1 24/24/1 25/25/1 22/21/1
f 37/26/2 36/27/2 44/28/2 45/29/2
f 35/30/2 34/31/2 42/32/2 43/33/2
f 33/34/2 32/35/2 40/36/2 41/37/2
f 38/38/2 37/26/2 45/29/2 46/39/2
f 36/27/2 49/40/2 47/41/2 44/28/2
f 34/31/2 33/34/2 41/37/2 42/32/2
f 32/35/2 31/42/2 39/43/2 40/36/2
f 31/42/2 50/44/2 48/45/2 39/43/2
f 49/40/2 50/44/2 31/42/2 35/30/2
f 48/45/2 50/44/2 38/38/2 46/39/2
f 47/41/2 49/40/2 35/30/2 43/33/2
f 43/33/3 42/32/3 51/46/3 52/47/3
f 47/41/2 43/33/2 54/48/2 53/49/2
f 43/33/4 52/47/4 55/50/4 54/48/4
f 27/51/5 26/52/5 56/53/5 57/54/5
f 18/19/6 9/17/6 39/43/6 48/45/6
f 28/55/7 27/51/7 57/54/7 58/56/7
f 6/4/8 19/16/8 49/40/8 36/27/8
f 14/3/9 15/2/9 45/29/9 44/28/9
f 29/57/10 28/55/10 58/56/10 59/58/10
f 2/12/11 1/18/11 31/42/11 32/35/11
f 15/2/12 16/14/12 46/39/12 45/29/12
f 30/59/13 29/57/13 59/58/13 60/60/13
f 3/9/9 2/12/9 32/35/9 33/34/9
f 16/14/14 18/19/14 48/45/14 46/39/14
f 23/23/15 30/59/15 60/60/15 53/49/15
f 4/8/12 3/9/12 33/34/12 34/31/12
f 23/23/16 17/15/16 47/41/16 53/49/16
f 5/5/17 4/8/17 34/31/17 35/30/17
f 19/16/18 20/20/18 50/44/18 49/40/18
f 1/18/19 5/5/19 35/30/19 31/42/19
f 22/21/20 25/25/20 55/50/20 52/47/20
f 7/1/21 6/4/21 36/27/21 37/26/21
f 21/22/22 22/21/22 52/47/22 51/46/22
f 8/13/23 7/1/23 37/26/23 38/38/23
f 12/7/24 21/22/24 51/46/24 42/32/24
f 20/20/25 8/13/25 38/38/25 50/44/25
f 9/17/26 10/11/26 40/36/26 39/43/26
f 24/24/27 23/23/27 53/49/27 54/48/27
f 10/11/21 11/10/21 41/37/21 40/36/21
f 25/25/28 24/24/28 54/48/28 55/50/28
f 11/10/23 12/7/23 42/32/23 41/37/23
f 26/52/29 25/25/29 55/50/29 56/53/29
f 17/15/11 14/3/11 44/28/11 47/41/11
f 59/58/10 58/56/10 66/61/10 67/62/10
f 57/54/5 56/53/5 64/63/5 65/64/5
f 55/50/28 54/48/28 62/65/28 63/66/28
f 60/60/13 59/58/13 67/62/13 68/67/13
f 58/56/7 57/54/7 65/64/7 66/61/7
f 56/53/29 55/50/29 63/66/29 64/63/29
f 54/48/30 53/49/30 61/68/30 62/65/30
f 53/49/15 60/60/15 68/67/15 61/68/15
f 61/68/31 68/67/31 76/69/31 69/70/31
f 67/62/32 66/61/32 74/71/32 75/72/32
f 65/64/33 64/63/33 72/73/33 73/74/33
f 63/66/34 62/65/34 70/75/34 71/76/34
f 68/67/35 67/62/35 75/72/35 76/69/35
f 66/61/36 65/64/36 73/74/36 74/71/36
f 64/63/37 63/66/37 71/76/37 72/73/37
f 62/65/38 61/68/38 69/70/38 70/75/38
f 74/71/39 73/74/39 81/77/39 82/78/39
f 72/73/40 71/76/40 79/79/40 80/80/40
f 70/75/41 69/70/41 77/81/41 78/82/41
f 69/70/42 76/69/42 84/83/42 77/81/42
f 75/72/43 74/71/43 82/78/43 83/84/43
f 73/74/44 72/73/44 80/80/44 81/77/44
f 71/76/45 70/75/45 78/82/45 79/79/45
f 76/69/46 75/72/46 83/84/46 84/83/46
f 77/81/1 84/83/1 79/79/1 78/82/1
f 81/77/1 80/80/1 83/84/1 82/78/1
f 80/80/1 79/79/1 84/83/1 83/84/1
